<?xml version="1.0" standalone="no"?>
<!DOCTYPE svg PUBLIC "-//W3C//DTD SVG 20010904//EN"
 "http://www.w3.org/TR/2001/REC-SVG-20010904/DTD/svg10.dtd">
<svg version="1.0" xmlns="http://www.w3.org/2000/svg"
 width="70.000000pt" height="70.000000pt" viewBox="0 0 70.000000 70.000000"
 preserveAspectRatio="xMidYMid meet">
<metadata>
Created by potrace 1.14, written by Peter Selinger 2001-2017
</metadata>
<g transform="translate(0.000000,70.000000) scale(0.100000,-0.100000)"
fill="#000000" stroke="none">
<path d="M31 658 l-29 -39 0 -309 0 -310 349 0 349 0 0 316 0 315 -25 33 -26
34 -294 0 -295 -1 -29 -39z m574 -260 l0 -263 -255 0 -255 0 0 260 0 260 70 5
c39 3 153 4 255 3 l185 -1 0 -264z m-548 -28 c0 -138 -4 -253 -9 -256 -9 -6
-9 -15 -9 269 0 192 3 237 15 237 2 0 4 -113 3 -250z m613 -11 c0 -164 -3
-248 -10 -244 -6 4 -10 100 -10 256 0 164 3 248 10 244 6 -4 10 -100 10 -256z
m-24 -288 c13 -14 24 -29 24 -33 0 -5 -142 -8 -315 -8 -173 0 -315 3 -315 8 0
4 11 19 24 33 l24 26 267 0 267 0 24 -26z"/>
<path d="M199 519 c-10 -6 -8 -34 10 -131 12 -68 24 -128 26 -134 3 -11 69
-13 80 -2 4 4 15 42 24 85 l18 78 12 -73 c15 -83 27 -100 73 -98 29 1 33 5 39
36 3 19 14 77 23 129 9 51 15 99 12 106 -2 7 -16 10 -33 8 -21 -3 -29 -11 -31
-26 -1 -12 -4 -31 -6 -42 -3 -11 -5 -42 -5 -69 -1 -78 -19 -39 -46 100 -5 26
-12 33 -36 36 -33 5 -34 1 -60 -132 l-13 -65 -7 40 c-4 22 -10 65 -13 96 -6
49 -10 57 -31 61 -13 3 -29 2 -36 -3z"/>
</g>
</svg>
